<svg width="415" height="353" viewBox="0 0 415 353" fill="none" xmlns="http://www.w3.org/2000/svg">
<path d="M28.1222 0.803455C30.1574 0.881728 32.0864 1.75111 33.5075 3.23058C34.9286 4.71006 35.7323 6.6856 35.7513 8.74588L36.3081 39.4C36.3433 41.0072 35.7465 42.5612 34.6487 43.7204C33.5509 44.8797 32.042 45.5495 30.4536 45.5826C28.9159 45.5783 27.4395 44.9643 26.3416 43.8723C25.2436 42.7803 24.6115 41.2974 24.5809 39.7419L24.0093 8.22395C23.9801 7.23756 24.3136 6.27621 24.9452 5.52591C25.5768 4.7756 26.4616 4.28967 27.4284 4.1621C27.9635 4.10177 28.5054 4.15515 29.0195 4.31882C29.5336 4.48248 30.0085 4.75283 30.4139 5.11256C30.8193 5.47228 31.1462 5.91348 31.3738 6.4079C31.6013 6.90232 31.7244 7.43908 31.7353 7.98384L32.1369 30.108C32.1417 30.3744 32.0417 30.6315 31.8589 30.8229C31.6761 31.0142 31.4255 31.1241 31.1622 31.1284V31.1284C31.0317 31.1304 30.902 31.1064 30.7806 31.0577C30.6591 31.0091 30.5483 30.9367 30.4544 30.8447C30.3605 30.7527 30.2855 30.6429 30.2335 30.5216C30.1815 30.4004 30.1537 30.27 30.1515 30.138L29.7514 8.10113C29.7509 7.61867 29.5744 7.15292 29.2557 6.79315C28.937 6.43339 28.4986 6.20493 28.0245 6.15157C27.7629 6.12961 27.4997 6.16327 27.2519 6.2504C27.0042 6.33752 26.7773 6.47618 26.586 6.65746C26.3946 6.83873 26.2429 7.05862 26.1407 7.30297C26.0385 7.54733 25.988 7.81074 25.9925 8.07629L26.5643 39.5954C26.5708 40.586 26.9404 41.54 27.6015 42.2726C28.2626 43.0052 29.1681 43.4644 30.1429 43.5612C30.6823 43.6049 31.2244 43.5341 31.7346 43.3534C32.2448 43.1727 32.7117 42.8861 33.1056 42.5119C33.4994 42.1377 33.8115 41.6842 34.0217 41.1805C34.2319 40.6768 34.3357 40.1339 34.3264 39.5867L33.7667 8.7393C33.744 7.14993 33.0986 5.63305 31.9723 4.52191C30.846 3.41076 29.331 2.79624 27.76 2.81335C26.2407 2.86553 24.8038 3.51863 23.7581 4.6323C22.7124 5.74598 22.1413 7.23135 22.1675 8.76925L22.6472 35.2334C22.6496 35.3652 22.6263 35.4962 22.5786 35.6188C22.531 35.7415 22.4599 35.8533 22.3694 35.948C22.2789 36.0427 22.1708 36.1184 22.0513 36.1708C21.9318 36.2231 21.8033 36.2511 21.6729 36.2531C21.5426 36.2553 21.413 36.2315 21.2916 36.183C21.1702 36.1345 21.0594 36.0623 20.9655 35.9705C20.8716 35.8787 20.7965 35.7692 20.7444 35.6481C20.6923 35.527 20.6643 35.3968 20.6619 35.2649L20.1817 8.80085C20.1637 7.74156 20.3569 6.69001 20.7498 5.70902C21.1427 4.72803 21.7271 3.83771 22.4683 3.09124C23.2094 2.34476 24.0921 1.75745 25.0635 1.36438C26.0349 0.971307 27.0752 0.780534 28.1222 0.803455Z" fill="white"/>
<g filter="url(#filter0_b_278_1121)">
<path d="M5 29.2214C5 24.1055 9.14726 19.9582 14.2632 19.9582H399.737C404.853 19.9582 409 24.1054 409 29.2213V336.695C409 341.811 404.853 345.958 399.737 345.958H14.2632C9.14725 345.958 5 341.811 5 336.695V29.2214Z" fill="url(#paint0_linear_278_1121)" fill-opacity="0.05"/>
<path d="M14.2632 20.4582H399.737C404.577 20.4582 408.5 24.3816 408.5 29.2213V336.695C408.5 341.535 404.577 345.458 399.737 345.458H14.2632C9.42339 345.458 5.5 341.535 5.5 336.695V29.2214C5.5 24.3816 9.4234 20.4582 14.2632 20.4582Z" stroke="url(#paint1_linear_278_1121)" stroke-opacity="0.5"/>
</g>
<g filter="url(#filter1_b_278_1121)">
<path d="M10.6552 22.2161C10.8273 17.1031 15.1117 13.0977 20.2247 13.2698L405.48 26.2369C410.593 26.409 414.599 30.6934 414.427 35.8064L404.083 343.106C403.911 348.219 399.627 352.224 394.514 352.052L9.25827 339.085C4.14527 338.913 0.139874 334.629 0.31197 329.516L10.6552 22.2161Z" fill="url(#paint2_linear_278_1121)" fill-opacity="0.05"/>
<path d="M20.2079 13.7695L405.463 26.7366C410.3 26.8994 414.09 30.9526 413.927 35.7896L403.584 343.089C403.421 347.926 399.368 351.715 394.531 351.553L9.27509 338.586C4.43807 338.423 0.64888 334.37 0.811687 329.533L11.1549 22.2329C11.3177 17.3959 15.3709 13.6067 20.2079 13.7695Z" stroke="url(#paint3_linear_278_1121)" stroke-opacity="0.5"/>
</g>
<path fill-rule="evenodd" clip-rule="evenodd" d="M33.3269 3.38717C31.9058 1.90769 29.9768 1.03831 27.9416 0.960037C26.8946 0.937116 25.8544 1.12789 24.8829 1.52096C23.9115 1.91404 23.0289 2.50135 22.2877 3.24782C21.5466 3.99429 20.9621 4.88461 20.5692 5.8656C20.1764 6.8466 19.9832 7.89814 20.0011 8.95744L20.4813 35.4215C20.4837 35.5534 20.5117 35.6836 20.5638 35.8047C20.6159 35.9257 20.6911 36.0353 20.785 36.1271C20.8789 36.2188 20.9897 36.291 21.111 36.3395C21.2324 36.388 21.362 36.4119 21.4924 36.4097C21.6227 36.4077 21.7513 36.3797 21.8708 36.3273C21.9903 36.275 22.0984 36.1993 22.1888 36.1046C22.2793 36.0099 22.3504 35.898 22.3981 35.7754C22.4457 35.6528 22.469 35.5218 22.4666 35.39L21.9869 8.92583C21.9607 7.38793 22.5318 5.90256 23.5776 4.78888C24.6233 3.67521 26.0602 3.02211 27.5794 2.96993C29.1504 2.95282 30.6655 3.56734 31.7918 4.67849C32.918 5.78963 33.5634 7.30651 33.5861 8.89588L34.1458 39.7432C34.1551 40.2905 34.0513 40.8334 33.8411 41.3371C33.6309 41.8408 33.3189 42.2943 32.925 42.6685C32.5312 43.0426 32.0642 43.3293 31.554 43.51C31.0439 43.6906 30.5017 43.7614 29.9624 43.7178C28.9876 43.6209 28.082 43.1618 27.4209 42.4292C26.7599 41.6966 26.3903 40.7426 26.3837 39.7519L25.812 8.23287C25.8075 7.96732 25.858 7.70391 25.9602 7.45955C26.0623 7.2152 26.214 6.99532 26.4054 6.81404C26.5968 6.63276 26.8236 6.49411 27.0714 6.40698C27.3191 6.31986 27.5823 6.28619 27.844 6.30815C28.3181 6.36151 28.7565 6.58997 29.0751 6.94973C29.3938 7.3095 29.5703 7.77525 29.5708 8.25771L29.7944 20.5684H31.7803L31.5547 8.14042C31.5439 7.59566 31.4207 7.0589 31.1932 6.56448C30.9657 6.07006 30.6388 5.62887 30.2334 5.26914C29.828 4.90941 29.353 4.63906 28.8389 4.4754C28.3248 4.31173 27.7829 4.25836 27.2478 4.31868C26.281 4.44625 25.3962 4.93219 24.7646 5.68249C24.133 6.4328 23.7996 7.39414 23.8287 8.38054L24.4003 39.8985C24.4309 41.454 25.063 42.9369 26.161 44.0289C27.259 45.1209 28.7353 45.7349 30.273 45.7392C31.8615 45.7061 33.3704 45.0363 34.4681 43.877C35.5659 42.7177 36.1627 41.1638 36.1275 39.5566L35.5707 8.90246C35.5518 6.84218 34.7481 4.86664 33.3269 3.38717Z" fill="white"/>
<defs>
<filter id="filter0_b_278_1121" x="2" y="16.9582" width="410" height="332" filterUnits="userSpaceOnUse" color-interpolation-filters="sRGB">
<feFlood flood-opacity="0" result="BackgroundImageFix"/>
<feGaussianBlur in="BackgroundImageFix" stdDeviation="1.5"/>
<feComposite in2="SourceAlpha" operator="in" result="effect1_backgroundBlur_278_1121"/>
<feBlend mode="normal" in="SourceGraphic" in2="effect1_backgroundBlur_278_1121" result="shape"/>
</filter>
<filter id="filter1_b_278_1121" x="-2.69336" y="10.2645" width="420.125" height="344.793" filterUnits="userSpaceOnUse" color-interpolation-filters="sRGB">
<feFlood flood-opacity="0" result="BackgroundImageFix"/>
<feGaussianBlur in="BackgroundImageFix" stdDeviation="1.5"/>
<feComposite in2="SourceAlpha" operator="in" result="effect1_backgroundBlur_278_1121"/>
<feBlend mode="normal" in="SourceGraphic" in2="effect1_backgroundBlur_278_1121" result="shape"/>
</filter>
<linearGradient id="paint0_linear_278_1121" x1="-19.9433" y1="394.858" x2="520.147" y2="238.754" gradientUnits="userSpaceOnUse">
<stop stop-color="white" stop-opacity="0.3"/>
<stop offset="1" stop-color="white" stop-opacity="0"/>
<stop offset="1" stop-color="white" stop-opacity="0.26"/>
</linearGradient>
<linearGradient id="paint1_linear_278_1121" x1="-38.1354" y1="-13.7048" x2="512.979" y2="152.446" gradientUnits="userSpaceOnUse">
<stop stop-color="white" stop-opacity="0.3"/>
<stop offset="1" stop-color="white" stop-opacity="0.5"/>
</linearGradient>
<linearGradient id="paint2_linear_278_1121" x1="-26.5738" y1="386.807" x2="518.462" y2="248.959" gradientUnits="userSpaceOnUse">
<stop stop-color="white" stop-opacity="0.3"/>
<stop offset="1" stop-color="white" stop-opacity="0"/>
<stop offset="1" stop-color="white" stop-opacity="0.26"/>
</linearGradient>
<linearGradient id="paint3_linear_278_1121" x1="-31.0118" y1="-22.1368" x2="514.202" y2="162.459" gradientUnits="userSpaceOnUse">
<stop stop-color="white" stop-opacity="0.3"/>
<stop offset="1" stop-color="white" stop-opacity="0.5"/>
</linearGradient>
</defs>
</svg>
