<svg width="17" height="46" viewBox="0 0 17 46" fill="none" xmlns="http://www.w3.org/2000/svg">
<path fill-rule="evenodd" clip-rule="evenodd" d="M13.3269 3.38717C11.9058 1.90769 9.97683 1.03831 7.94159 0.960037C6.89461 0.937116 5.85435 1.12789 4.88294 1.52096C3.91152 1.91404 3.02888 2.50135 2.28772 3.24782C1.54657 3.99429 0.962105 4.88461 0.569239 5.8656C0.176373 6.8466 -0.0168363 7.89814 0.00114969 8.95744L0.481349 35.4215C0.483707 35.5534 0.511736 35.6836 0.563832 35.8047C0.615928 35.9257 0.69107 36.0353 0.784964 36.1271C0.878859 36.2188 0.989664 36.291 1.11104 36.3395C1.23243 36.388 1.362 36.4119 1.49237 36.4097C1.6227 36.4077 1.75128 36.3797 1.87079 36.3273C1.99029 36.275 2.09836 36.1993 2.18883 36.1046C2.2793 36.0099 2.3504 35.898 2.39806 35.7754C2.44572 35.6528 2.46901 35.5218 2.4666 35.39L1.98693 8.92583C1.96072 7.38793 2.53183 5.90256 3.57756 4.78888C4.62329 3.67521 6.06017 3.02211 7.57945 2.96993C9.15042 2.95282 10.6655 3.56734 11.7918 4.67849C12.918 5.78963 13.5634 7.30651 13.5861 8.89588L14.1458 39.7432C14.1551 40.2905 14.0513 40.8334 13.8411 41.3371C13.6309 41.8408 13.3189 42.2943 12.925 42.6685C12.5312 43.0426 12.0642 43.3293 11.554 43.51C11.0439 43.6907 10.5017 43.7614 9.96238 43.7178C8.98758 43.6209 8.08201 43.1618 7.42094 42.4292C6.75986 41.6966 6.39027 40.7426 6.3837 39.7519L5.81199 8.23287C5.80748 7.96732 5.85795 7.70391 5.96015 7.45955C6.06235 7.2152 6.21401 6.99532 6.40539 6.81404C6.59677 6.63276 6.82363 6.49411 7.07138 6.40698C7.31914 6.31986 7.58231 6.28619 7.84397 6.30815C8.31807 6.36151 8.75647 6.58997 9.07514 6.94973C9.3938 7.3095 9.57031 7.77525 9.57082 8.25771L9.79435 20.5684H11.7803L11.5547 8.14042C11.5439 7.59566 11.4207 7.0589 11.1932 6.56448C10.9657 6.07006 10.6388 5.62887 10.2334 5.26914C9.82797 4.90941 9.35303 4.63906 8.83894 4.4754C8.32485 4.31173 7.78292 4.25836 7.24784 4.31868C6.28099 4.44625 5.39619 4.93219 4.76461 5.68249C4.13304 6.4328 3.79958 7.39414 3.82874 8.38054L4.40034 39.8985C4.4309 41.454 5.06302 42.9369 6.161 44.0289C7.25899 45.1209 8.7353 45.7349 10.273 45.7392C11.8615 45.7061 13.3704 45.0363 14.4681 43.877C15.5659 42.7177 16.1627 41.1638 16.1275 39.5566L15.5707 8.90246C15.5518 6.84218 14.7481 4.86664 13.3269 3.38717Z" fill="white"/>
</svg>
