<svg width="39" height="33" viewBox="0 0 39 33" fill="none" xmlns="http://www.w3.org/2000/svg">
<path d="M12.4842 23.1594C18.4265 23.1594 23.2438 18.3419 23.2438 12.3993C23.2438 6.45663 18.4265 1.63916 12.4842 1.63916C6.54183 1.63916 1.72461 6.45663 1.72461 12.3993C1.72461 18.3419 6.54183 23.1594 12.4842 23.1594Z" stroke="white" stroke-width="3" stroke-miterlimit="10"/>
<path d="M26.0107 32.0749C28.5574 32.0749 30.6219 30.0103 30.6219 27.4634C30.6219 24.9166 28.5574 22.8519 26.0107 22.8519C23.4639 22.8519 21.3994 24.9166 21.3994 27.4634C21.3994 30.0103 23.4639 32.0749 26.0107 32.0749Z" stroke="white" stroke-width="1.2857" stroke-miterlimit="10"/>
<path d="M34.4645 21.0073C36.417 21.0073 37.9998 19.4245 37.9998 17.4719C37.9998 15.5193 36.417 13.9364 34.4645 13.9364C32.512 13.9364 30.9292 15.5193 30.9292 17.4719C30.9292 19.4245 32.512 21.0073 34.4645 21.0073Z" stroke="white" stroke-width="0.985" stroke-miterlimit="10"/>
</svg>
