<svg width="187" height="42" viewBox="0 0 187 42" fill="none" xmlns="http://www.w3.org/2000/svg">
<path d="M41.506 28.8811H13.96V13.9147H9.72214V30.944C9.72214 32.0766 10.6777 33.007 11.841 33.007H35.9802L30.9945 37.3755H4.23785V12.6203H9.68059H13.9184H31.7839C32.324 12.6203 32.8226 12.418 33.1965 12.0945L42.9186 3.60002C43.5834 3.03372 43.7911 2.10338 43.5003 1.33484C43.168 0.525844 42.3786 0 41.506 0H11.841C10.6777 0 9.72214 0.930343 9.72214 2.06293V7.20005H13.96V4.12587H35.9802L30.9945 8.49445H13.96H9.72214H2.11893C0.955593 8.49445 0 9.42475 0 10.5574V39.4384C0 40.571 0.955593 41.5014 2.11893 41.5014H31.7839C32.324 41.5014 32.8226 41.2991 33.1965 40.9755L42.9186 32.4811C43.5834 31.9148 43.7911 30.9844 43.5003 30.2159C43.168 29.4069 42.3786 28.8811 41.506 28.8811Z" fill="#FE4350"/>
<path d="M63.796 9.29834C68.4359 9.29834 73.4622 11.7635 74.3457 17.5514C72.4123 17.5514 70.6454 17.5514 68.7121 17.5514C67.8835 15.3541 66.2263 14.3359 63.796 14.3359C60.4275 14.3359 58.2179 16.8011 58.2179 20.3917C58.2179 23.6072 60.372 26.394 63.796 26.4475C66.2263 26.4475 68.2152 25.2685 68.8224 22.9105C70.7558 22.9105 72.5233 22.9105 74.456 22.9105C73.6274 29.0735 68.6017 31.4851 63.796 31.4851C58.1076 31.5387 52.3081 27.7873 52.3081 20.3917C52.3081 12.9961 58.0521 9.29834 63.796 9.29834Z" fill="white"/>
<path d="M76.1724 20.4443C76.1724 5.38511 99.2037 5.38511 99.2037 20.4443C99.1489 35.557 76.1724 35.557 76.1724 20.4443ZM93.2939 20.4443C93.2939 12.6199 82.0267 12.6199 82.0267 20.4443C82.0267 28.3758 93.2939 28.3758 93.2939 20.4443Z" fill="white"/>
<path d="M121.405 9.45947H123.449V31.3247C121.516 31.3247 119.527 31.3247 117.595 31.3247V21.6247L112.844 26.5015H112.182L107.431 21.6247V31.3247C105.498 31.3247 103.51 31.3247 101.577 31.3247V9.45947H103.676L112.458 18.8916L121.405 9.45947Z" fill="white"/>
<path d="M135.652 31.3251H127.201V9.51343H135.652C150.288 9.62063 150.288 31.2715 135.652 31.3251ZM132.945 26.2339H135.652C142.777 26.2339 142.777 14.6047 135.652 14.6047H132.945V26.2339Z" fill="white"/>
<path d="M163.102 14.4975C159.789 14.4975 158.076 14.4975 154.818 14.4975V17.6057H162.44C162.44 19.2671 162.44 20.9284 162.44 22.5362H154.762C154.762 23.8223 154.762 25.0549 154.762 26.3411C158.076 26.3411 160.009 26.3411 163.379 26.3411C163.379 27.9489 163.379 29.6638 163.379 31.2715C158.132 31.2715 154.265 31.2715 149.073 31.2715C149.073 23.9831 149.073 16.6947 149.073 9.51343C154.265 9.51343 157.8 9.51343 163.102 9.51343C163.102 11.1748 163.102 12.8361 163.102 14.4975Z" fill="white"/>
<path d="M176.142 24.4655L171.834 31.3251H165.813V30.4677L173.049 19.7494L166.587 10.3709V9.51343H172.442L176.087 15.1941H176.252L180.008 9.51343H185.752V10.3709L179.345 19.7494L186.636 30.4677V31.3251H180.616L176.308 24.4655H176.142Z" fill="white"/>
</svg>
